<?xml version="1.0" encoding="UTF-8" standalone="no"?>
<svg
   version="1.0"
   width="98.000000pt"
   height="93.000000pt"
   viewBox="0 0 98.000000 93.000000"
   preserveAspectRatio="xMidYMid meet"
   id="svg16"
   sodipodi:docname="Rettungstreffpunkt.svg"
   xml:space="preserve"
   inkscape:version="1.2.2 (732a01da63, 2022-12-09)"
   xmlns:inkscape="http://www.inkscape.org/namespaces/inkscape"
   xmlns:sodipodi="http://sodipodi.sourceforge.net/DTD/sodipodi-0.dtd"
   xmlns="http://www.w3.org/2000/svg"
   xmlns:svg="http://www.w3.org/2000/svg"><defs
     id="defs20" /><sodipodi:namedview
     id="namedview18"
     pagecolor="#ffffff"
     bordercolor="#000000"
     borderopacity="0.25"
     inkscape:showpageshadow="2"
     inkscape:pageopacity="0.0"
     inkscape:pagecheckerboard="0"
     inkscape:deskcolor="#d1d1d1"
     inkscape:document-units="pt"
     showgrid="false"
     inkscape:zoom="1.1604535"
     inkscape:cx="-190.44279"
     inkscape:cy="275.3234"
     inkscape:window-width="2400"
     inkscape:window-height="1421"
     inkscape:window-x="4791"
     inkscape:window-y="-8"
     inkscape:window-maximized="1"
     inkscape:current-layer="svg16" /><rect
     style="fill:#f9f9f9;stroke:#00953e;stroke-width:0.0980003;stroke-linecap:square;stroke-miterlimit:3.8"
     id="rect231"
     width="97.591156"
     height="90.481865"
     x="0.64629906"
     y="1.2925981" /><path
     style="fill:#008000;stroke-width:0.098;stroke-dasharray:none"
     d="M 2.64248,46.599884 V 1.0919419 H 49.123249 95.604012 V 46.599884 92.107826 H 49.123249 2.64248 Z m 18.018106,32.096971 4.999521,-4.890004 0.02565,4.897941 c 0.0144,2.741115 0.0637,4.883864 0.112161,4.865964 0.04759,-0.0176 1.361387,-1.24713 2.919604,-2.732314 l 2.833113,-2.700336 v -7.054824 -7.054825 h -7.305582 -7.305575 l -2.2831,2.299604 c -1.255709,1.264782 -2.519047,2.539246 -2.807433,2.832143 l -0.524332,0.53254 4.917064,0.04841 4.917065,0.04841 -4.902246,4.792465 c -2.696234,2.635857 -4.8892,4.830738 -4.873256,4.877515 0.04796,0.14064 4.071838,4.104322 4.178803,4.116262 0.05445,0.006 2.348793,-2.189454 5.098533,-4.878956 z m 51.882744,-0.03401 c 8.87e-4,-2.670264 0.03319,-4.854613 0.07181,-4.854111 0.03862,4.85e-4 2.316438,2.20086 5.061791,4.889683 2.745354,2.688824 5.017822,4.888769 5.049919,4.888769 0.13419,0 4.186232,-4.053113 4.152113,-4.153215 -0.0205,-0.06021 -2.237338,-2.265725 -4.926248,-4.901145 l -4.888947,-4.791673 h 4.922347 c 3.112744,0 4.910208,-0.03428 4.889344,-0.09325 -0.02527,-0.07137 -3.103828,-3.198646 -5.309916,-5.39392 l -0.22789,-0.226771 -7.296153,0.02483 -7.296163,0.02483 -0.02536,7.002814 -0.02537,7.002815 0.826803,0.791631 c 4.084283,3.910544 4.943593,4.718874 4.979315,4.683934 0.0226,-0.0221 0.04177,-2.224953 0.04263,-4.895216 z M 50.855754,63.250532 c 1.729473,-0.149615 3.696229,-0.675782 5.394758,-1.443265 0.475718,-0.214954 0.915534,-0.362565 0.977365,-0.328024 0.06179,0.03454 0.0801,0.02781 0.04053,-0.01496 -0.03958,-0.04277 0.294583,-0.297332 0.742505,-0.565694 1.540375,-0.922892 3.415013,-2.550271 4.536762,-3.938384 1.043898,-1.291765 2.172684,-3.324412 2.748692,-4.949652 1.222009,-3.448016 1.185791,-7.67593 -0.09517,-11.108011 -0.73583,-1.971515 -1.718821,-3.610047 -3.203126,-5.339205 -0.654955,-0.762989 -2.046599,-1.984953 -3.037601,-2.667219 -2.6468,-1.822224 -5.483355,-2.80419 -8.782489,-3.04034 -4.693895,-0.335985 -9.568611,1.411773 -12.99002,4.657374 -2.327384,2.207794 -3.895729,4.837202 -4.697042,7.87483 -1.204606,4.566432 -0.401682,9.403266 2.210074,13.313493 1.749765,2.619677 4.224343,4.74862 6.947688,5.977255 0.517276,0.23337 1.011294,0.461375 1.097813,0.506679 0.08649,0.0453 0.694311,0.239396 1.35064,0.431316 2.29233,0.670318 4.232919,0.852303 6.758594,0.63381 z M 31.550647,21.730656 V 14.677304 L 28.71493,11.975497 c -1.559647,-1.485995 -2.862741,-2.7018079 -2.895773,-2.7018079 -0.03299,0 -0.08229,2.1906249 -0.109549,4.8680529 l -0.04949,4.868055 -4.998902,-4.892261 c -2.749397,-2.690742 -5.04373,-4.8856359 -5.098533,-4.8775409 -0.05483,0.0081 -1.034514,0.9453669 -2.177156,2.0828269 l -2.077534,2.068108 4.94818,4.84019 4.94818,4.84019 h -4.924912 c -2.708698,0 -4.924904,0.02864 -4.924904,0.06364 0,0.035 0.680732,0.743039 1.512731,1.573413 0.832,0.830373 2.088348,2.087091 2.79188,2.792706 l 1.279139,1.282937 h 7.306185 7.306185 z m 50.602156,6.292666 c 0.4013,-0.418378 1.656952,-1.692842 2.790344,-2.832143 l 2.060694,-2.071457 -4.934754,-0.02509 -4.934763,-0.02509 4.953072,-4.839874 4.953072,-4.839872 -2.15322,-2.10615 L 82.734017,9.1774971 77.70934,14.09107 c -2.763577,2.702464 -5.05607,4.913572 -5.094433,4.913572 -0.03833,0 -0.06904,-2.189465 -0.06809,-4.865477 8.86e-4,-2.676012 -0.02823,-4.8595869 -0.06475,-4.8523879 -0.03652,0.0072 -1.270071,1.1618419 -2.741225,2.5658729 -1.471164,1.404032 -2.735856,2.587628 -2.810437,2.630215 -0.112857,0.06444 -0.1356,1.270536 -0.1356,7.189287 v 7.111856 h 7.314147 7.314157 z"
     id="path360"
     sodipodi:nodetypes="ccccccccccccsscccccsscccsccscsssssscssscccccsssssssssssssssssssssssccssccssscccsssscccccscccccccsscsssscccc" /></svg>
