<?xml version="1.0" encoding="UTF-8" standalone="no"?>
<svg
   version="1.0"
   width="98.000000pt"
   height="93.000000pt"
   viewBox="0 0 98.000000 93.000000"
   preserveAspectRatio="xMidYMid meet"
   id="svg16"
   sodipodi:docname="Symbol_Hydrant.svg"
   xml:space="preserve"
   inkscape:version="1.2.2 (732a01da63, 2022-12-09)"
   xmlns:inkscape="http://www.inkscape.org/namespaces/inkscape"
   xmlns:sodipodi="http://sodipodi.sourceforge.net/DTD/sodipodi-0.dtd"
   xmlns="http://www.w3.org/2000/svg"
   xmlns:svg="http://www.w3.org/2000/svg"><defs
     id="defs20" /><sodipodi:namedview
     id="namedview18"
     pagecolor="#ffffff"
     bordercolor="#000000"
     borderopacity="0.25"
     inkscape:showpageshadow="2"
     inkscape:pageopacity="0.0"
     inkscape:pagecheckerboard="0"
     inkscape:deskcolor="#d1d1d1"
     inkscape:document-units="pt"
     showgrid="false"
     inkscape:zoom="6.5645161"
     inkscape:cx="29.17199"
     inkscape:cy="62.076167"
     inkscape:window-width="2400"
     inkscape:window-height="1421"
     inkscape:window-x="2391"
     inkscape:window-y="-9"
     inkscape:window-maximized="1"
     inkscape:current-layer="svg16" /><g
     transform="matrix(0.09675775,0,0,-0.1,0.60058773,92.200246)"
     fill="#000000"
     stroke="none"
     id="g14"><path
       d="m 437,673 c -11,-2 -30,-15 -44,-26 -13,-12 -29,-22 -35,-22 -6,0 -22,-20 -36,-45 -14,-25 -29,-46 -33,-48 -5,-2 -9,-15 -9,-28 0,-23 -3,-24 -65,-24 h -65 v -30 -30 h 65 c 51,0 65,-3 65,-15 0,-8 5,-15 10,-15 6,0 10,-7 10,-16 0,-29 40,-82 78,-105 20,-13 40,-28 44,-33 4,-6 44,-11 91,-11 66,0 87,4 101,17 10,10 23,18 31,18 7,0 25,15 39,33 14,17 32,39 40,47 7,8 17,30 21,48 l 7,32 h 69 69 v 30 30 h -69 -69 l -11,45 c -6,25 -16,45 -21,45 -6,0 -15,11 -21,23 -6,13 -25,32 -42,42 -18,10 -35,23 -39,29 -7,11 -149,19 -181,9 z"
       id="path12" /></g><ellipse
     style="fill:none;stroke:#000000;stroke-width:0.535748"
     id="path355"
     cx="42.958229"
     cy="39.416462"
     rx="10.168304"
     ry="15.423834" /><circle
     style="fill:#000000;stroke:#000000;stroke-width:0.51201"
     id="path359"
     cx="50.781269"
     cy="46.325489"
     r="24.743996" /><rect
     style="fill:none;stroke:#5a9ad3;stroke-width:5.843;stroke-linecap:round;stroke-linejoin:round;stroke-dasharray:none;stroke-opacity:1;marker-end:"
     id="rect1074"
     width="84.866997"
     height="84.752739"
     x="7.1512694"
     y="4.066504" /></svg>
