<?xml version="1.0" encoding="UTF-8" standalone="no"?>
<svg
   viewBox="0 0 600.99622 600.99628"
   height="600.99628"
   width="600.99622"
   xml:space="preserve"
   id="svg850"
   version="1.1"
   sodipodi:docname="Höhenbescghänkung.svg"
   inkscape:version="1.2.2 (732a01da63, 2022-12-09)"
   xmlns:inkscape="http://www.inkscape.org/namespaces/inkscape"
   xmlns:sodipodi="http://sodipodi.sourceforge.net/DTD/sodipodi-0.dtd"
   xmlns="http://www.w3.org/2000/svg"
   xmlns:svg="http://www.w3.org/2000/svg"
   xmlns:rdf="http://www.w3.org/1999/02/22-rdf-syntax-ns#"
   xmlns:cc="http://creativecommons.org/ns#"
   xmlns:dc="http://purl.org/dc/elements/1.1/"><sodipodi:namedview
     id="namedview38"
     pagecolor="#ffffff"
     bordercolor="#000000"
     borderopacity="0.25"
     inkscape:showpageshadow="2"
     inkscape:pageopacity="0.0"
     inkscape:pagecheckerboard="0"
     inkscape:deskcolor="#d1d1d1"
     showgrid="false"
     inkscape:zoom="1.3544177"
     inkscape:cx="249.55374"
     inkscape:cy="300.8673"
     inkscape:window-width="2400"
     inkscape:window-height="1271"
     inkscape:window-x="2391"
     inkscape:window-y="-9"
     inkscape:window-maximized="1"
     inkscape:current-layer="svg850" /><metadata
     id="metadata856"><rdf:RDF><cc:Work
         rdf:about=""><dc:format>image/svg+xml</dc:format><dc:type
           rdf:resource="http://purl.org/dc/dcmitype/StillImage" /><dc:title /></cc:Work></rdf:RDF></metadata><defs
     id="defs854" /><g
     transform="matrix(1.3333333,0,0,-1.3333333,0,600.9963)"
     id="g858"><g
       id="g860"><path
         id="path862"
         style="fill:#ffffff;fill-opacity:1;fill-rule:nonzero;stroke:none"
         d="m 225.375,0.372 c -124.266,0 -225,100.735 -225,225 0,124.266 100.734,225 225,225 124.266,0 225,-100.734 225,-225 0,-124.265 -100.734,-225 -225,-225 z" /><path
         id="path864"
         style="fill:#000000;fill-opacity:1;fill-rule:nonzero;stroke:none"
         d="m 450.746,225.372 c 0,124.469 -100.906,225.375 -225.371,225.375 C 100.906,450.747 0,349.841 0,225.372 0,100.907 100.906,0.001 225.375,0.001 c 124.465,0 225.371,100.906 225.371,225.371 z m -0.371,0 c 0,-124.265 -100.734,-225 -225,-225 -124.266,0 -225,100.735 -225,225 0,124.266 100.734,225 225,225 124.266,0 225,-100.734 225,-225 z" /><path
         id="path866"
         style="fill:#000000;fill-opacity:1;fill-rule:nonzero;stroke:none"
         d="m 427.98,428.403 h -0.023 v 0.024 z" /><path
         id="path868"
         style="fill:#000000;fill-opacity:1;fill-rule:nonzero;stroke:none"
         d="m 427.957,428.427 h 0.023 v -0.023 h -0.023 z" /><path
         id="path870"
         style="fill:#000000;fill-opacity:1;fill-rule:nonzero;stroke:none"
         d="m 427.957,428.427 h 0.023 l -0.023,-0.024 z m 0,-0.024 0.023,0.024 h -0.023 z" /><path
         id="path872"
         style="fill:#000000;fill-opacity:1;fill-rule:nonzero;stroke:none"
         d="m 427.957,428.38 v 0.047 -0.024 h 0.023 z" /><path
         id="path874"
         style="fill:#000000;fill-opacity:1;fill-rule:nonzero;stroke:none"
         d="m 427.957,428.427 h 0.023 -0.023 l 0.023,-0.024 z" /><path
         id="path876"
         style="fill:#000000;fill-opacity:1;fill-rule:nonzero;stroke:none"
         d="m 427.957,428.427 h 0.023 v -0.023 h -0.023 z" /><path
         id="path878"
         style="fill:#000000;fill-opacity:1;fill-rule:nonzero;stroke:none"
         d="m 427.98,428.38 h -0.042 v 0.047 z" /><path
         id="path880"
         style="fill:#000000;fill-opacity:1;fill-rule:nonzero;stroke:none"
         d="m 427.938,428.427 h 0.043 v -0.047 h -0.043 z" /><path
         id="path882"
         style="fill:#000000;fill-opacity:1;fill-rule:nonzero;stroke:none"
         d="m 427.938,428.427 h 0.042 l -0.042,-0.047 z m 0,-0.047 0.042,0.047 h -0.042 z" /><path
         id="path884"
         style="fill:#000000;fill-opacity:1;fill-rule:nonzero;stroke:none"
         d="m 427.938,428.38 v 0.047 -0.024 h 0.042 z" /><path
         id="path886"
         style="fill:#000000;fill-opacity:1;fill-rule:nonzero;stroke:none"
         d="m 427.938,428.427 h 0.042 -0.042 l 0.042,-0.047 z" /><path
         id="path888"
         style="fill:#000000;fill-opacity:1;fill-rule:nonzero;stroke:none"
         d="m 427.938,428.427 h 0.043 v -0.047 h -0.043 z" /><path
         id="path890"
         style="fill:#000000;fill-opacity:1;fill-rule:nonzero;stroke:none"
         d="m 427.98,428.38 h -0.042 v 0.047 z" /><path
         id="path892"
         style="fill:#000000;fill-opacity:1;fill-rule:nonzero;stroke:none"
         d="m 427.938,428.427 h 0.043 v -0.047 h -0.043 z" /><path
         id="path894"
         style="fill:#000000;fill-opacity:1;fill-rule:nonzero;stroke:none"
         d="m 427.938,428.427 h 0.042 l -0.042,-0.047 z m 0,-0.047 0.042,0.047 h -0.042 z" /><path
         id="path896"
         style="fill:#000000;fill-opacity:1;fill-rule:nonzero;stroke:none"
         d="m 427.938,428.38 v 0.047 -0.024 h 0.042 z" /><path
         id="path898"
         style="fill:#000000;fill-opacity:1;fill-rule:nonzero;stroke:none"
         d="m 427.938,428.427 h 0.042 -0.042 l 0.042,-0.047 z" /><path
         id="path900"
         style="fill:#000000;fill-opacity:1;fill-rule:nonzero;stroke:none"
         d="m 427.938,428.427 h 0.043 v -0.047 h -0.043 z" /><path
         id="path902"
         style="fill:#000000;fill-opacity:1;fill-rule:nonzero;stroke:none"
         d="m 427.98,428.38 h -0.042 v 0.047 z" /><path
         id="path904"
         style="fill:#000000;fill-opacity:1;fill-rule:nonzero;stroke:none"
         d="m 427.938,428.427 h 0.043 v -0.047 h -0.043 z" /><path
         id="path906"
         style="fill:#000000;fill-opacity:1;fill-rule:nonzero;stroke:none"
         d="m 427.938,428.427 h 0.042 l -0.042,-0.047 z m 0,-0.047 0.042,0.047 h -0.042 z" /><path
         id="path908"
         style="fill:#000000;fill-opacity:1;fill-rule:nonzero;stroke:none"
         d="m 427.938,428.38 v 0.047 -0.024 h 0.042 z" /><path
         id="path910"
         style="fill:#000000;fill-opacity:1;fill-rule:nonzero;stroke:none"
         d="m 427.938,428.427 h 0.042 -0.042 l 0.042,-0.047 z" /><path
         id="path912"
         style="fill:#000000;fill-opacity:1;fill-rule:nonzero;stroke:none"
         d="m 427.938,428.427 h 0.043 v -0.047 h -0.043 z" /><path
         id="path914"
         style="fill:#000000;fill-opacity:1;fill-rule:nonzero;stroke:none"
         d="m 225.367,340.505 -56.508,32.09 c 36.371,13.973 76.641,13.973 113.028,0" /><path
         id="path916"
         style="fill:#000000;fill-opacity:1;fill-rule:nonzero;stroke:none"
         d="M 225.367,110.239 281.887,78.15 C 245.5,64.177 205.23,64.177 168.859,78.15" /><path
         id="path918"
         style="fill:#c1121c;fill-opacity:1;fill-rule:nonzero;stroke:none"
         d="m 7.875,225.376 c 0,119.762 97.734,217.496 217.5,217.496 119.762,0 217.5,-97.734 217.5,-217.496 0,-119.765 -97.738,-217.504 -217.5,-217.504 -119.766,0 -217.5,97.739 -217.5,217.504 z m 60.297,0 c 0,-87.18 70.023,-157.207 157.203,-157.207 87.176,0 157.199,70.027 157.199,157.207 0,87.176 -70.023,157.199 -157.199,157.199 -87.18,0 -157.203,-70.023 -157.203,-157.199 z" /><path
         id="path920"
         style="fill:#000000;fill-opacity:1;fill-rule:nonzero;stroke:none"
         d="m 132.336,159.419 v 25.356 l 62.801,134.347 h 29.984 L 161.676,184.775 h 48.902 v 54.046 h 26.895 v -54.046 h 15.058 v -25.356 h -15.058 v -27.797 h -26.895 v 27.797 z" /><path
         id="path922"
         style="fill:#000000;fill-opacity:1;fill-rule:nonzero;stroke:none"
         d="m 289.766,169.122 v -37.5 h 8.304 v 25.039 c 0,2.297 1.86,4.157 4.149,4.157 2.301,0 4.156,-1.86 4.156,-4.157 v -25.039 h 8.32 v 25.039 c 0,2.297 1.856,4.153 4.145,4.157 2.285,0 4.14,-1.86 4.14,-4.157 v -25.039 h 8.305 v 25.039 c 0,0 0.203,12.395 -12.437,12.442 0,0 0,0.004 -0.004,0.004 h -0.02 c 0,0 0,-0.004 -0.008,-0.004 -3.82,-0.012 -6.468,-1.157 -8.3,-2.746 -1.832,1.589 -4.477,2.73 -8.293,2.746 -0.008,0.008 -0.012,0.015 -0.016,0.023 -1.398,-0.058 -2.926,-0.219 -4.148,-0.562 v 0.562 z" /></g></g><rect
     style="fill:#ffffff;stroke-width:26.6667;stroke-linecap:square;stroke-miterlimit:3.8"
     id="rect432"
     width="297.54483"
     height="271.70349"
     x="155.04817"
     y="164.64639" /></svg>
